
<svg version="1.0" xmlns="http://www.w3.org/2000/svg"
 width="293.000000pt" height="214.000000pt" viewBox="0 0 293.000000 214.000000"
 preserveAspectRatio="xMidYMid meet">

<g transform="translate(0.000000,214.000000) scale(0.100000,-0.100000)"
fill="#000000" stroke="none">
<path d="M1294 2088 c-17 -18 -53 -62 -79 -98 -27 -36 -50 -67 -51 -69 -2 -2
-21 4 -43 12 -109 44 -252 41 -358 -8 -29 -13 -53 -21 -53 -17 0 4 -37 47 -82
96 l-82 88 -48 -4 c-127 -13 -322 -154 -346 -250 -16 -62 -15 -180 2 -299 15
-109 27 -136 62 -149 37 -14 70 -3 129 46 l53 42 -25 -86 c-18 -60 -26 -115
-27 -177 -1 -103 11 -135 86 -223 39 -45 43 -55 40 -91 -5 -51 -20 -62 -28
-22 -7 32 -19 41 -26 19 -3 -8 -9 -4 -17 10 -7 13 -8 22 -2 22 11 0 -19 69
-30 70 -8 0 -35 -62 -31 -73 3 -11 -27 -67 -37 -67 -13 0 -21 28 -10 32 6 2 0
23 -14 46 l-24 43 -26 -45 c-17 -31 -20 -43 -10 -39 11 4 9 -5 -7 -38 -12 -24
-30 -52 -39 -63 -15 -18 -15 -18 8 -11 26 8 25 3 -16 -52 -21 -29 -22 -33 -7
-33 14 0 10 -8 -17 -36 -32 -34 -32 -36 -9 -29 23 7 24 7 10 -11 -7 -10 -27
-33 -43 -51 -29 -31 -29 -32 -6 -26 24 7 24 6 6 -18 -42 -58 -42 -61 -24 -262
10 -105 23 -197 30 -205 20 -25 54 -31 123 -21 89 12 114 29 114 74 0 27 4 35
18 35 15 1 56 14 105 35 14 6 17 2 17 -30 0 -81 30 -97 156 -84 108 11 -16 10
882 5 l763 -4 44 23 c44 22 45 22 51 3 9 -29 64 -48 136 -48 74 0 103 16 113
60 6 27 10 30 46 30 110 0 179 82 179 213 0 55 -19 106 -55 149 -29 34 -32 48
-9 48 12 0 4 14 -25 45 -47 51 -50 59 -18 50 19 -6 18 -3 -10 27 -36 37 -42
54 -17 44 10 -4 4 10 -15 36 -36 48 -39 63 -12 48 15 -8 12 3 -15 47 -37 62
-42 78 -20 70 9 -4 5 11 -12 41 -14 26 -27 49 -28 50 -1 2 -14 -19 -28 -47
-21 -40 -23 -49 -10 -44 14 5 15 3 5 -15 -7 -12 -16 -22 -22 -22 -15 0 -22 27
-10 47 8 15 3 25 -25 54 l-35 36 38 78 c31 65 37 92 41 159 5 89 -10 164 -35
173 -21 8 -106 -13 -173 -43 l-56 -25 -53 20 c-59 24 -156 28 -224 9 -42 -11
-47 -10 -95 20 -53 32 -130 62 -162 62 -40 0 -76 -140 -60 -232 5 -29 12 -67
15 -84 7 -31 6 -31 -40 -36 -29 -4 -55 -14 -72 -29 -26 -25 -63 -86 -44 -75 7
5 8 1 5 -9 -4 -9 -13 -14 -20 -11 -7 3 -16 0 -20 -6 -5 -7 -2 -8 7 -3 8 5 -3
-7 -23 -27 -21 -19 -38 -40 -38 -46 0 -6 -7 -9 -15 -6 -9 4 -15 0 -15 -7 -1
-9 -4 -8 -11 4 -6 9 -15 14 -21 11 -6 -4 16 27 49 67 111 137 130 188 113 296
-6 37 -24 105 -40 151 -16 45 -26 82 -23 82 2 0 23 -16 46 -35 64 -55 125 -60
161 -12 19 26 21 41 21 205 0 199 -7 232 -63 294 -65 72 -241 158 -325 158
-24 0 -41 -8 -63 -32z m220 -46 c106 -51 179 -118 196 -182 16 -60 10 -346 -9
-379 -11 -20 -18 -22 -48 -18 -42 7 -112 63 -166 133 -56 73 -78 142 -86 264
-7 104 -7 104 -20 65 -16 -51 -69 -112 -86 -99 -79 59 -100 77 -100 84 0 5 31
48 68 95 l69 87 48 -4 c28 -3 84 -22 134 -46z m-897 -68 c37 -41 69 -79 70
-82 1 -4 -24 -28 -56 -53 l-57 -46 -35 40 c-19 23 -39 53 -46 67 -10 21 -12 9
-12 -78 -1 -154 -38 -246 -137 -345 -54 -54 -91 -72 -120 -59 -33 16 -47 98
-48 274 l-1 146 30 43 c60 86 278 204 327 178 9 -5 47 -43 85 -85z m438 -49
c86 -23 160 -69 240 -149 108 -108 196 -276 240 -454 25 -106 18 -167 -30
-238 -53 -80 -121 -151 -183 -191 -56 -36 -156 -76 -166 -66 -3 4 -6 21 -6 40
0 40 53 104 103 124 54 21 89 50 103 86 9 20 19 31 26 27 6 -4 9 -1 6 7 -3 8
-14 15 -26 17 -16 2 -19 -1 -15 -16 6 -26 -55 -78 -109 -92 -57 -16 -132 -5
-198 29 -53 27 -55 30 -58 72 -3 44 -2 45 38 63 44 19 80 66 80 103 0 45 -96
90 -168 77 -44 -8 -98 -38 -106 -60 -18 -48 22 -106 85 -125 38 -12 39 -14 39
-56 0 -41 -3 -45 -47 -73 -26 -17 -63 -35 -83 -40 -51 -14 -137 -12 -168 4
-38 20 -75 62 -67 76 5 8 0 11 -16 8 -12 -1 -24 -9 -27 -16 -2 -7 2 -10 12 -6
11 4 16 1 16 -11 0 -26 53 -72 99 -86 23 -7 61 -29 84 -49 36 -33 41 -42 39
-76 -2 -21 -4 -40 -6 -41 -9 -10 -141 42 -192 75 -77 50 -171 153 -202 221
-21 47 -24 63 -19 125 12 155 108 393 204 508 134 160 308 227 478 183z m869
-551 l49 -32 74 20 c80 22 120 19 215 -18 l46 -18 69 32 c90 41 102 40 63 -5
-18 -20 -39 -52 -46 -70 -13 -31 -12 -40 14 -116 16 -45 32 -98 36 -118 3 -20
22 -52 42 -74 33 -36 34 -41 22 -64 -29 -56 -120 -141 -186 -173 -57 -28 -78
-33 -162 -36 -185 -8 -306 54 -399 202 -17 28 -31 56 -31 63 0 8 15 27 34 44
23 20 43 53 62 102 15 40 37 91 50 115 16 32 20 51 14 71 -11 39 -36 85 -54
100 -9 8 -16 17 -16 22 0 12 45 -9 104 -47z m-115 -30 c12 -15 21 -35 21 -46
0 -36 -43 -189 -51 -181 -14 15 -39 126 -39 178 0 76 31 98 69 49z m725 -90
c-1 -56 -8 -85 -29 -130 l-28 -59 -13 75 c-7 41 -13 89 -13 106 -1 40 34 86
63 82 19 -3 21 -9 20 -74z m-794 -148 c0 -3 -4 -8 -10 -11 -5 -3 -10 -1 -10 4
0 6 5 11 10 11 6 0 10 -2 10 -4z m-116 -70 c-5 -13 -10 -14 -20 -5 -10 8 -11
15 -1 30 9 15 13 16 19 5 5 -8 5 -22 2 -30z m116 24 c0 -5 -4 -10 -10 -10 -5
0 -10 5 -10 10 0 6 5 10 10 10 6 0 10 -4 10 -10z m-21 -37 c-13 -15 -39 -18
-39 -4 0 10 17 18 37 18 9 0 10 -4 2 -14z m1 -132 c0 -3 -6 3 -13 13 -13 18
-14 18 -33 -2 l-19 -20 -1 24 c-1 13 2 21 7 18 5 -3 9 0 9 6 0 6 5 8 11 4 8
-4 9 4 5 27 -5 27 -2 23 14 -16 11 -27 20 -52 20 -54z m-160 65 c0 -2 -8 -10
-17 -17 -16 -13 -17 -12 -4 4 13 16 21 21 21 13z m-629 -22 c8 -9 21 -37 30
-63 l16 -46 7 45 c11 67 42 93 90 74 30 -11 16 -22 -18 -14 -24 5 -36 4 -39
-4 -3 -8 6 -10 28 -8 70 8 96 -67 54 -155 -27 -57 -70 -86 -124 -86 -84 0
-151 82 -143 175 8 76 64 123 99 82z m586 -6 c-3 -8 -6 -5 -6 6 -1 11 2 17 5
13 3 -3 4 -12 1 -19z m23 -23 c-7 -9 -15 -13 -19 -10 -3 3 1 10 9 15 21 14 24
12 10 -5z m-1000 -20 c29 -15 59 -55 42 -55 -15 0 -75 44 -80 58 -5 16 3 15
38 -3z m1200 -22 c0 -2 -7 -11 -15 -19 -13 -14 -15 -13 -15 10 0 18 4 24 15
20 8 -4 15 -8 15 -11z m-1100 -58 c0 -26 -14 -33 -25 -15 -9 14 1 40 15 40 5
0 10 -11 10 -25z m1850 5 c-6 -11 -13 -20 -16 -20 -2 0 0 9 6 20 6 11 13 20
16 20 2 0 0 -9 -6 -20z m-1240 -25 c-33 -34 -28 -45 10 -25 17 9 17 7 -3 -28
-29 -50 -54 -80 -98 -118 -36 -30 -38 -31 -178 -38 l-142 -6 -54 47 c-62 53
-120 131 -89 118 49 -20 59 -18 29 6 -33 26 -55 52 -50 58 2 2 33 -2 69 -10
56 -11 67 -16 77 -41 16 -39 80 -94 119 -103 73 -16 150 27 190 106 16 31 29
41 67 52 82 25 92 22 53 -18z m305 4 c85 -23 144 -96 122 -148 -19 -45 -38
-61 -74 -61 -18 0 -32 3 -32 8 4 22 -3 50 -15 68 -13 17 -14 16 -9 -21 7 -57
-24 -95 -77 -95 -53 0 -84 38 -77 94 7 53 -11 32 -21 -25 -7 -40 -10 -44 -39
-47 -40 -4 -63 27 -63 83 0 120 130 186 285 144z m-948 -39 c53 -24 83 -70 83
-128 0 -62 -14 -82 -55 -82 -29 0 -35 4 -35 20 0 18 -26 80 -33 80 -1 0 -1
-20 1 -46 5 -59 -16 -84 -71 -84 -57 0 -77 21 -77 84 -1 49 -1 50 -15 26 -8
-14 -14 -37 -15 -52 0 -19 -5 -28 -17 -29 -57 -4 -93 29 -93 83 0 108 200 186
327 128z m1836 0 c-3 -12 -8 -19 -11 -16 -5 6 5 36 12 36 2 0 2 -9 -1 -20z
m-36 -32 c-3 -8 -6 -5 -6 6 -1 11 2 17 5 13 3 -3 4 -12 1 -19z m-250 -43 c68
-1 126 -4 129 -8 3 -3 -4 -16 -16 -29 -12 -13 -26 -32 -30 -44 -7 -17 -20 -22
-71 -27 -36 -4 -80 -17 -104 -31 l-42 -23 -25 31 c-14 17 -28 47 -32 67 -3 21
-13 42 -21 49 -30 25 -17 33 38 24 28 -4 107 -9 174 -9z m-260 -21 c57 -42 64
-104 13 -117 -16 -4 -20 0 -20 21 l0 25 -23 -21 c-40 -38 -97 -24 -97 22 -1
21 -1 21 -16 1 -11 -15 -18 -17 -32 -9 -27 17 -27 59 0 84 20 19 32 21 85 18
43 -3 72 -10 90 -24z m593 -29 c27 -24 26 -71 -1 -85 -17 -9 -23 -8 -35 7 -7
10 -14 13 -14 6 0 -20 -30 -43 -55 -43 -14 0 -32 11 -44 26 l-21 27 0 -27 c0
-14 -3 -26 -8 -26 -17 0 -52 32 -52 48 0 27 29 63 64 78 43 20 139 13 166 -11z
m-1240 -68 c-4 -4 -21 0 -38 10 l-31 18 27 28 26 28 12 -38 c6 -21 8 -42 4
-46z m-465 21 c5 -5 -8 -8 -28 -8 -35 0 -37 2 -37 32 l0 31 28 -24 c15 -13 31
-27 37 -31z m626 -54 c21 -10 50 -14 87 -12 l57 3 -1 -33 c-3 -45 -30 -86 -52
-76 -9 4 -37 9 -61 12 -59 6 -51 -15 16 -40 70 -26 103 -66 103 -125 0 -38 -5
-50 -33 -78 -41 -41 -102 -52 -205 -38 -92 13 -106 25 -98 77 10 60 19 66 73
50 54 -16 103 -18 103 -4 0 5 -28 23 -63 38 -74 34 -107 71 -107 119 0 64 36
106 100 116 46 8 51 7 81 -9z m-220 -21 c2 -16 2 -46 -1 -68 -5 -38 -7 -40
-45 -45 l-40 -5 0 -119 0 -120 -40 -8 c-22 -5 -56 -8 -75 -6 -29 3 -35 7 -37
28 -1 14 -5 69 -8 122 l-7 97 -41 3 -42 3 0 65 c0 79 -4 78 191 79 l142 1 3
-27z m569 -48 c4 -49 9 -71 19 -73 21 -5 31 17 31 70 0 26 4 49 9 52 5 3 42 8
82 10 l72 4 -7 -186 c-4 -130 -10 -188 -19 -194 -6 -5 -41 -7 -77 -6 l-65 3
-3 73 c-3 64 -5 72 -22 72 -18 0 -20 -7 -20 -64 0 -36 -4 -67 -10 -71 -15 -9
-140 -9 -150 1 -5 5 -6 89 -3 187 7 205 3 198 103 194 l55 -2 5 -70z m-952 8
l-3 -58 -67 -3 c-53 -2 -68 -6 -68 -18 0 -13 11 -15 63 -12 l62 3 3 -48 c3
-52 4 -52 -70 -62 -29 -4 -48 -11 -48 -19 0 -9 21 -12 73 -12 l72 1 3 -46 c2
-29 -2 -50 -10 -56 -7 -6 -74 -12 -148 -14 l-134 -4 -7 40 c-4 22 -10 103 -14
180 l-7 140 34 14 c37 16 110 27 206 29 l63 2 -3 -57z m1452 42 c7 -8 27 -15
45 -15 65 0 102 -74 93 -188 -6 -76 -32 -128 -81 -160 -35 -23 -51 -27 -116
-27 -138 0 -193 48 -200 174 -2 41 2 90 8 110 13 46 63 98 105 110 52 15 132
13 146 -4z m-1833 -30 c50 -33 69 -142 37 -210 -18 -38 -57 -60 -126 -69 l-48
-7 0 -44 c0 -48 -2 -50 -82 -60 -42 -5 -58 -4 -64 6 -10 16 -43 348 -36 366 4
13 75 30 152 37 71 6 140 -2 167 -19z m2210 15 c136 -15 166 -42 165 -141 -2
-118 -41 -160 -149 -163 l-68 -1 -3 -42 -3 -43 -74 0 c-41 0 -77 5 -80 10 -3
6 -1 92 6 191 12 168 14 182 33 189 28 12 75 12 173 0z"/>
<path d="M1149 1710 l-24 -19 38 6 c47 7 122 -20 144 -53 9 -14 18 -23 20 -20
9 9 -26 74 -48 90 -33 22 -101 21 -130 -4z"/>
<path d="M622 1694 c-21 -15 -52 -63 -52 -83 0 -5 15 6 33 24 36 36 104 60
140 49 22 -6 22 -6 2 10 -26 20 -94 20 -123 0z"/>
<path d="M1154 1581 c-58 -35 -82 -138 -50 -215 20 -47 36 -54 20 -8 -17 48
-17 95 0 136 55 132 189 80 189 -74 0 -58 -15 -100 -36 -100 -7 0 -22 -7 -33
-15 -17 -13 -15 -14 28 -9 32 5 56 2 77 -9 33 -16 32 -3 0 21 -14 10 -16 18
-8 44 23 82 -1 171 -60 221 -39 32 -83 35 -127 8z"/>
<path d="M641 1566 c-43 -24 -71 -84 -71 -153 0 -34 5 -74 10 -88 9 -23 7 -30
-15 -47 -34 -26 -27 -32 14 -12 23 12 45 14 74 10 39 -7 41 -6 22 8 -11 9 -27
16 -36 16 -32 0 -54 92 -38 155 15 58 51 95 94 95 69 0 123 -111 97 -198 -15
-47 -9 -51 12 -8 60 127 -54 283 -163 222z"/>
<path d="M1180 1470 c-41 -41 -16 -140 35 -140 28 0 45 26 45 69 0 24 -5 30
-25 33 -33 4 -37 22 -7 26 19 3 21 6 11 18 -16 19 -35 18 -59 -6z"/>
<path d="M670 1455 c-10 -13 -9 -15 9 -15 12 0 21 -6 21 -15 0 -9 -9 -15 -25
-15 -21 0 -25 -5 -25 -28 0 -35 26 -72 50 -72 26 0 50 38 50 80 0 64 -49 103
-80 65z"/>
<path d="M1912 1184 c-30 -21 -28 -38 3 -18 16 10 38 15 61 12 32 -4 34 -3 18
9 -24 17 -55 16 -82 -3z"/>
<path d="M2273 1172 c-8 -5 1 -8 23 -9 19 -1 43 -8 53 -17 28 -26 37 -18 11 9
-23 25 -63 32 -87 17z"/>
<path d="M1893 1106 c-24 -21 -28 -32 -30 -85 -1 -33 -5 -66 -9 -72 -4 -7 1
-7 16 1 12 7 40 10 61 8 45 -4 39 7 -11 19 -37 10 -46 27 -36 69 8 29 40 64
61 64 25 0 55 -42 56 -79 0 -34 1 -34 10 -12 21 52 -15 111 -68 111 -12 0 -34
-11 -50 -24z"/>
<path d="M2262 1087 c-14 -15 -22 -35 -21 -58 l1 -34 11 32 c17 47 41 67 69
60 27 -7 48 -44 48 -85 0 -37 -10 -47 -49 -49 -18 0 -37 -5 -42 -10 -5 -5 8
-7 30 -5 21 2 49 -2 61 -8 20 -11 22 -10 17 4 -4 9 -2 28 3 42 14 35 -4 99
-33 119 -31 22 -70 19 -95 -8z"/>
<path d="M1948 1053 c19 -8 14 -23 -8 -23 -22 0 -26 -20 -8 -38 17 -17 26 -15
38 8 14 26 4 60 -18 59 -11 0 -12 -3 -4 -6z"/>
<path d="M2287 1033 c-4 -3 -7 -19 -7 -35 0 -25 4 -29 22 -26 26 3 38 38 14
38 -19 0 -21 16 -3 23 8 4 6 6 -4 6 -9 1 -19 -2 -22 -6z"/>
<path d="M2072 978 c-18 -18 -14 -35 14 -57 16 -13 24 -27 20 -36 -6 -18 -58
-20 -89 -4 -22 11 -22 11 1 -14 13 -13 31 -40 40 -58 9 -18 24 -37 33 -42 27
-17 67 1 85 36 9 17 28 42 43 55 22 19 22 21 4 13 -29 -14 -66 -14 -81 1 -18
18 -15 32 11 43 25 11 35 54 15 66 -20 13 -82 11 -96 -3z m71 -173 c-1 -6 -9
-12 -18 -13 -22 -5 -47 6 -40 17 7 13 61 9 58 -4z"/>
<path d="M869 924 c-11 -14 -10 -15 11 -12 13 1 25 9 28 16 5 17 -23 15 -39
-4z"/>
<path d="M920 920 c0 -5 5 -10 11 -10 5 0 7 5 4 10 -3 6 -8 10 -11 10 -2 0 -4
-4 -4 -10z"/>
<path d="M2180 404 c-15 -40 -13 -179 4 -193 23 -19 39 14 44 94 5 85 -2 125
-23 125 -9 0 -20 -12 -25 -26z"/>
<path d="M275 348 c8 -61 9 -62 30 -55 31 12 12 107 -21 107 -13 0 -15 -9 -9
-52z"/>
<path d="M2599 341 c-3 -43 -1 -51 13 -51 33 0 38 92 7 98 -14 2 -18 -7 -20
-47z"/>
</g>
</svg>
